<svg xmlns="http://www.w3.org/2000/svg"  viewBox="0 0 64 64" width="128px" height="128px" baseProfile="basic"><path fill="#bd6300" d="M47,36H17v-8c0-8.284,6.716-15,15-15h0c8.284,0,15,6.716,15,15V36z"/><path fill="#bd6300" d="M36,55h-8c-5.523,0-10-4.477-10-10V31h28v14C46,50.523,41.523,55,36,55z"/><path fill="#bd6300" d="M18,29l-2.342,2.927C14.585,33.269,14,34.936,14,36.654v0c0,1.369,0.35,2.723,1.072,3.887 C15.939,41.938,17.449,43.49,20,44L18,29z"/><path fill="#bd6300" d="M46,29l2.342,2.927C49.415,33.269,50,34.936,50,36.654v0c0,1.369-0.35,2.723-1.072,3.887 C48.061,41.938,46.551,43.49,44,44L46,29z"/><path fill="orange" d="M27,44h-3c-2.761,0-5-2.239-5-5v0c0-2.761,2.239-5,5-5h8v5C32,41.761,29.761,44,27,44z"/><path fill="orange" d="M37,44h3c2.761,0,5-2.239,5-5v0c0-2.761-2.239-5-5-5h-8v5C32,41.761,34.239,44,37,44z"/><circle cx="26.5" cy="30.5" r="3.5" fill="#fff"/><circle cx="37.5" cy="30.5" r="3.5" fill="#fff"/><ellipse cx="32" cy="34" fill="#9c34c2" rx="5" ry="2"/><circle cx="26.5" cy="30.5" r="1.5" fill="#008aa9"/><circle cx="37.5" cy="30.5" r="1.5" fill="#008aa9"/><path fill="orange" d="M19,21c0,0,2-7-6-7s-7,6-7,6s1,7,7,7S19,21,19,21z"/><path fill="#bd6300" d="M13,17c1.673,0,2.907,0.33,3.473,0.928c0.651,0.688,0.582,1.926,0.545,2.591 c-0.01,0.176-0.016,0.324-0.018,0.436C16.968,21.335,16.613,24,13,24c-3.24,0-3.962-3.989-4.03-4.424l0.011,0.031l-0.015-0.069 c-0.013-0.168-0.046-0.983,0.451-1.543C9.987,17.353,11.259,17,13,17 M13,14c-8,0-7,6-7,6s1,7,7,7s7-5,7-6S21,14,13,14L13,14z"/><path fill="orange" d="M44.96,22c0,0-2-7,6-7s7,6,7,6s-1,7-7,7S44.96,22,44.96,22z"/><path fill="#bd6300" d="M50.96,18c1.741,0,3.013,0.353,3.583,0.995c0.528,0.595,0.458,1.478,0.449,1.567l-0.002,0.014 C54.964,20.756,54.32,25,50.96,25c-3.613,0-3.968-2.665-4-3.044c-0.001-0.113-0.008-0.26-0.018-0.436 c-0.037-0.665-0.106-1.903,0.545-2.591C48.053,18.33,49.287,18,50.96,18 M50.96,15c-8,0-7,6-7,7s1,6,7,6s7-7,7-7 S58.96,15,50.96,15L50.96,15z"/><path fill="#9c34c2" d="M42,16H22c-0.552,0-1-0.448-1-1v0c0-1.657,1.343-3,3-3h16c1.657,0,3,1.343,3,3v0 C43,15.552,42.552,16,42,16z"/><path fill="#9c34c2" d="M32,4c-2.659,0-5.035,0.283-6.678,0.548c-1.2,0.194-1.952,1.401-1.589,2.561 C24.304,8.933,25,11.64,25,14h7h7c0-2.36,0.696-5.067,1.267-6.891c0.363-1.16-0.389-2.368-1.589-2.561C37.035,4.283,34.659,4,32,4z"/><path d="M46,45v-1.975c-2.294-0.213-4.509,1.188-5.229,3.476C40.114,48.594,38.197,50,36,50h-3 c-2.762,0-5,2.239-5,5h8C41.523,55,46,50.523,46,45z" opacity=".15"/><path fill="#9c34c2" d="M29.5,26c-0.374,0-0.747-0.139-1.037-0.417C28.403,25.532,27.761,25,26.5,25 c-1.297,0-1.939,0.563-1.967,0.587c-0.605,0.543-1.547,0.52-2.106-0.07c-0.559-0.59-0.562-1.503,0.013-2.077 C22.587,23.292,23.952,22,26.5,22s3.913,1.292,4.061,1.439c0.586,0.585,0.586,1.536,0,2.121C30.268,25.854,29.884,26,29.5,26z"/><path fill="#9c34c2" d="M40.5,26c-0.374,0-0.747-0.139-1.037-0.417C39.403,25.532,38.761,25,37.5,25 c-1.297,0-1.939,0.563-1.967,0.587c-0.605,0.543-1.548,0.52-2.106-0.07s-0.562-1.503,0.013-2.077C33.587,23.292,34.952,22,37.5,22 s3.913,1.292,4.061,1.439c0.586,0.585,0.586,1.536,0,2.121C41.268,25.854,40.884,26,40.5,26z"/><path fill="#9c34c2" d="M23.287,44h17.426c0.807,0,1.282,0.907,0.821,1.57l0,0c-1.274,1.835-3.367,2.93-5.601,2.93h-7.867 c-2.234,0-4.327-1.094-5.601-2.93l0,0C22.005,44.907,22.48,44,23.287,44z"/><path fill="#fff" d="M26,46h-1c-0.552,0-1,0.448-1,1v0.141c0.88,0.655,1.906,1.091,3,1.264V47C27,46.448,26.552,46,26,46 z"/><path fill="#fff" d="M30,46h-1c-0.552,0-1,0.448-1,1v1.496c0.022,0,0.044,0.004,0.067,0.004H31V47 C31,46.448,30.552,46,30,46z"/><path fill="#fff" d="M35.933,48.5c0.022,0,0.044-0.004,0.067-0.004V47c0-0.552-0.448-1-1-1h-1c-0.552,0-1,0.448-1,1v1.5 H35.933z"/><path fill="#fff" d="M40,47.141V47c0-0.552-0.448-1-1-1h-1c-0.552,0-1,0.448-1,1v1.406 C38.094,48.232,39.12,47.796,40,47.141z"/><circle cx="25" cy="37" r="1" fill="#bd6300"/><circle cx="22" cy="39" r="1" fill="#bd6300"/><circle cx="25" cy="41" r="1" fill="#bd6300"/><circle cx="39" cy="37" r="1" fill="#bd6300"/><circle cx="42" cy="39" r="1" fill="#bd6300"/><circle cx="39" cy="41" r="1" fill="#bd6300"/><ellipse cx="32" cy="61" opacity=".3" rx="20" ry="3"/><path fill="#f2f2f2" d="M27.5,16c-0.364,0-0.729-0.131-1.018-0.398c-0.608-0.562-0.646-1.511-0.085-2.12 c0.626-0.678,0.465-2.608,0.159-3.699c-0.224-0.796,0.239-1.625,1.035-1.85c0.795-0.224,1.623,0.234,1.851,1.029 c0.126,0.441,1.173,4.373-0.84,6.555C28.307,15.838,27.903,16,27.5,16z"/><path fill="#fff" d="M29.813,11.353c-0.288-2.209-0.871-4.34-1.309-5.738 c-0.162-0.516-0.417-0.972-0.715-1.391c-0.93,0.096-1.768,0.211-2.467,0.323c-1.2,0.194-1.952,1.401-1.589,2.561 c0.414,1.322,0.89,3.109,1.122,4.891H24c-1.649,0-2.987,1.33-3,2.976C20.996,15.536,21.44,16,22,16l1.027,0 C19.375,18.736,17,22.085,17,27h0.344c2.336,0,4.371-1.401,5.434-3.481c0.679-1.328,1.785-2.423,3.247-3.517 c1.321-0.99,2.043-2.543,2.001-4.136c0.209-0.171,0.405-0.361,0.586-0.567C29.562,14.218,30,12.78,29.813,11.353z" opacity=".3"/></svg>