<?xml version="1.0" standalone="no"?>
<!DOCTYPE svg PUBLIC "-//W3C//DTD SVG 20010904//EN"
 "http://www.w3.org/TR/2001/REC-SVG-20010904/DTD/svg10.dtd">
<svg version="1.0" xmlns="http://www.w3.org/2000/svg"
 width="64.000000pt" height="64.000000pt" viewBox="0 0 64.000000 64.000000"
 preserveAspectRatio="xMidYMid meet">

<g transform="translate(0.000000,64.000000) scale(0.100000,-0.100000)"
fill="#000000" stroke="none">
<path d="M356 631 c-4 -5 -3 -16 0 -25 5 -14 -5 -16 -75 -16 -100 0 -101 -2
-101 -144 l0 -106 -32 -13 c-51 -22 -71 -51 -76 -111 -4 -50 -2 -56 32 -93 20
-22 36 -49 36 -59 0 -31 29 -64 55 -64 16 0 30 10 42 30 l17 30 171 0 c121 0
176 4 188 13 16 11 17 36 15 262 l-3 250 -90 5 c-49 3 -85 9 -78 13 7 4 10 14
6 22 -6 17 -98 22 -107 6z m74 -30 c-15 -29 -13 -31 21 -31 20 0 29 -4 27 -12
-3 -9 -26 -13 -68 -13 -42 0 -65 4 -67 13 -3 8 6 12 26 12 34 0 36 2 21 31
-10 17 -7 19 20 19 27 0 30 -2 20 -19z m-160 -40 l-45 -6 -6 -110 -5 -110 -2
118 -2 117 53 -2 52 -1 -45 -6z m338 -233 l2 -238 -177 2 -178 2 141 3 141 4
32 32 31 33 -2 195 -3 194 -45 6 -45 7 50 -2 50 -1 3 -237z m-28 25 l0 -172
-27 -3 c-22 -2 -29 -9 -31 -30 l-3 -28 -115 0 -115 0 21 30 c11 16 25 32 30
35 16 10 11 25 -5 19 -11 -5 -15 1 -15 24 0 16 7 35 15 42 8 7 15 17 15 23 0
5 -8 3 -18 -7 -18 -15 -21 -14 -55 18 l-37 35 0 93 0 93 170 0 170 0 0 -172z
m-346 -47 c43 -18 66 -51 66 -98 0 -29 -9 -47 -40 -83 l-40 -46 0 40 c0 30 5
43 21 51 29 16 22 55 -11 55 -17 0 -26 -7 -31 -25 l-6 -25 -4 25 c-3 19 -10
25 -29 25 -33 0 -40 -39 -11 -55 16 -8 21 -21 21 -51 l0 -40 -40 46 c-31 36
-40 54 -40 83 0 46 22 80 64 98 39 17 40 17 80 0z m-64 -106 c0 -5 -4 -10 -10
-10 -5 0 -10 5 -10 10 0 6 5 10 10 10 6 0 10 -4 10 -10z m70 0 c0 -5 -4 -10
-10 -10 -5 0 -10 5 -10 10 0 6 5 10 10 10 6 0 10 -4 10 -10z m-43 -102 c-2
-13 -4 -3 -4 22 0 25 2 35 4 23 2 -13 2 -33 0 -45z m21 -45 c-10 -2 -28 -2
-40 0 -13 2 -5 4 17 4 22 1 32 -1 23 -4z m-11 -29 c-3 -3 -12 -4 -19 -1 -8 3
-5 6 6 6 11 1 17 -2 13 -5z"/>
<path d="M331 466 c-8 -10 -21 -14 -32 -11 -23 8 -25 -8 -3 -25 13 -11 19 -10
36 7 11 12 19 26 16 33 -3 9 -8 7 -17 -4z"/>
<path d="M380 470 c0 -6 33 -10 80 -10 47 0 80 4 80 10 0 6 -33 10 -80 10 -47
0 -80 -4 -80 -10z"/>
<path d="M380 430 c0 -5 25 -10 55 -10 30 0 55 5 55 10 0 6 -25 10 -55 10 -30
0 -55 -4 -55 -10z"/>
<path d="M331 376 c-8 -10 -21 -14 -32 -11 -22 7 -25 -7 -5 -24 10 -9 19 -7
36 7 13 10 21 24 19 31 -4 10 -8 9 -18 -3z"/>
<path d="M380 380 c0 -6 33 -10 80 -10 47 0 80 4 80 10 0 6 -33 10 -80 10 -47
0 -80 -4 -80 -10z"/>
<path d="M385 340 c3 -5 28 -10 56 -10 27 0 49 5 49 10 0 6 -25 10 -56 10 -34
0 -53 -4 -49 -10z"/>
<path d="M385 290 c3 -5 40 -10 81 -10 43 0 74 4 74 10 0 6 -34 10 -81 10 -51
0 -78 -4 -74 -10z"/>
<path d="M385 250 c3 -5 28 -10 56 -10 27 0 49 5 49 10 0 6 -25 10 -56 10 -34
0 -53 -4 -49 -10z"/>
<path d="M385 200 c3 -5 40 -10 81 -10 43 0 74 4 74 10 0 6 -34 10 -81 10 -51
0 -78 -4 -74 -10z"/>
<path d="M385 160 c3 -5 24 -10 46 -10 21 0 39 5 39 10 0 6 -21 10 -46 10 -27
0 -43 -4 -39 -10z"/>
<path d="M100 363 c0 -14 19 -38 25 -32 8 8 -5 39 -16 39 -5 0 -9 -3 -9 -7z"/>
<path d="M30 300 c0 -14 38 -32 45 -21 3 6 -3 15 -14 20 -24 14 -31 14 -31 1z"/>
<path d="M10 210 c0 -5 9 -10 20 -10 11 0 20 5 20 10 0 6 -9 10 -20 10 -11 0
-20 -4 -20 -10z"/>
<path d="M47 139 c-17 -10 -23 -29 -9 -29 5 0 16 6 27 13 22 17 7 29 -18 16z"/>
</g>
</svg>
