<?xml version="1.0" standalone="no"?>
<!DOCTYPE svg PUBLIC "-//W3C//DTD SVG 20010904//EN"
 "http://www.w3.org/TR/2001/REC-SVG-20010904/DTD/svg10.dtd">
<svg version="1.0" xmlns="http://www.w3.org/2000/svg"
 width="64.000000pt" height="64.000000pt" viewBox="0 0 64.000000 64.000000"
 preserveAspectRatio="xMidYMid meet">

<g transform="translate(0.000000,64.000000) scale(0.100000,-0.100000)"
fill="#000000" stroke="none">
<path d="M67 634 c-12 -12 -8 -456 3 -449 6 4 10 75 10 181 0 141 3 174 14
174 7 0 19 7 26 15 7 8 27 15 45 15 18 0 38 -7 45 -15 10 -12 43 -15 181 -15
l169 0 0 -260 c0 -253 -1 -260 -20 -260 -17 0 -20 7 -21 53 -1 28 -1 69 0 90
l3 37 -91 0 -91 0 0 -90 0 -90 -130 0 -130 0 0 64 c0 36 -5 68 -10 71 -7 5
-10 -19 -8 -72 l3 -78 255 0 255 0 0 315 0 315 -251 3 c-138 1 -253 -1 -257
-4z m493 -44 l0 -30 -119 0 c-96 0 -120 3 -125 15 -4 12 -25 15 -99 15 -72 0
-98 -4 -107 -15 -19 -23 -30 -18 -30 15 l0 30 240 0 240 0 0 -30z m-272 -27
c-10 -2 -28 -2 -40 0 -13 2 -5 4 17 4 22 1 32 -1 23 -4z m192 -463 l0 -80 -60
0 -60 0 0 80 0 80 60 0 60 0 0 -80z"/>
<path d="M455 590 c-3 -5 -1 -10 4 -10 6 0 11 5 11 10 0 6 -2 10 -4 10 -3 0
-8 -4 -11 -10z"/>
<path d="M485 590 c-3 -5 -1 -10 4 -10 6 0 11 5 11 10 0 6 -2 10 -4 10 -3 0
-8 -4 -11 -10z"/>
<path d="M515 590 c-3 -5 -1 -10 4 -10 6 0 11 5 11 10 0 6 -2 10 -4 10 -3 0
-8 -4 -11 -10z"/>
<path d="M174 496 c-3 -7 -4 -42 -2 -77 l3 -64 170 0 170 0 0 75 0 75 -107 0
c-141 0 -150 -19 -10 -23 l102 -3 0 -49 0 -50 -155 0 -155 0 0 49 0 50 37 3
c20 2 38 9 41 16 6 18 -87 17 -94 -2z"/>
<path d="M220 431 l0 -39 85 0 c47 0 88 4 91 9 3 5 13 3 23 -3 29 -18 50 -4
49 32 -1 35 -21 49 -47 33 -11 -7 -21 -7 -32 0 -24 15 -49 1 -49 -28 0 -16 -6
-25 -15 -25 -10 0 -15 10 -15 28 0 26 -3 28 -45 30 l-45 2 0 -39z m157 -13
c-3 -7 -5 -2 -5 12 0 14 2 19 5 13 2 -7 2 -19 0 -25z m73 28 c0 -3 -4 -8 -10
-11 -5 -3 -10 -1 -10 4 0 6 5 11 10 11 6 0 10 -2 10 -4z"/>
<path d="M125 430 c3 -5 8 -10 11 -10 2 0 4 5 4 10 0 6 -5 10 -11 10 -5 0 -7
-4 -4 -10z"/>
<path d="M125 400 c3 -5 8 -10 11 -10 2 0 4 5 4 10 0 6 -5 10 -11 10 -5 0 -7
-4 -4 -10z"/>
<path d="M138 313 c12 -2 30 -2 40 0 9 3 -1 5 -23 4 -22 0 -30 -2 -17 -4z"/>
<path d="M233 313 c15 -2 37 -2 50 0 12 2 0 4 -28 4 -27 0 -38 -2 -22 -4z"/>
<path d="M383 313 c26 -2 68 -2 95 0 26 2 4 3 -48 3 -52 0 -74 -1 -47 -3z"/>
<path d="M120 280 c0 -6 37 -10 90 -10 53 0 90 4 90 10 0 6 -37 10 -90 10 -53
0 -90 -4 -90 -10z"/>
<path d="M340 280 c0 -6 37 -10 90 -10 53 0 90 4 90 10 0 6 -37 10 -90 10 -53
0 -90 -4 -90 -10z"/>
<path d="M120 250 c0 -6 37 -10 90 -10 53 0 90 4 90 10 0 6 -37 10 -90 10 -53
0 -90 -4 -90 -10z"/>
<path d="M340 250 c0 -5 16 -10 36 -10 21 0 33 4 29 10 -3 6 -19 10 -36 10
-16 0 -29 -4 -29 -10z"/>
<path d="M435 250 c-4 -6 12 -10 39 -10 25 0 46 5 46 10 0 6 -18 10 -39 10
-22 0 -43 -4 -46 -10z"/>
<path d="M163 193 c26 -2 68 -2 95 0 26 2 4 3 -48 3 -52 0 -74 -1 -47 -3z"/>
<path d="M120 160 c0 -6 27 -10 60 -10 33 0 60 4 60 10 0 6 -27 10 -60 10 -33
0 -60 -4 -60 -10z"/>
<path d="M265 160 c3 -5 13 -10 21 -10 8 0 14 5 14 10 0 6 -9 10 -21 10 -11 0
-17 -4 -14 -10z"/>
<path d="M120 130 c0 -6 37 -10 90 -10 53 0 90 4 90 10 0 6 -37 10 -90 10 -53
0 -90 -4 -90 -10z"/>
<path d="M118 68 c9 -9 15 -9 24 0 9 9 7 12 -12 12 -19 0 -21 -3 -12 -12z"/>
</g>
</svg>
